<?xml version="1.0" encoding="UTF-8" standalone="no"?>
<svg
   xmlns:dc="http://purl.org/dc/elements/1.1/"
   xmlns:cc="http://creativecommons.org/ns#"
   xmlns:rdf="http://www.w3.org/1999/02/22-rdf-syntax-ns#"
   xmlns:svg="http://www.w3.org/2000/svg"
   xmlns="http://www.w3.org/2000/svg"
   height="339.70001"
   width="308.63144"
   xml:space="preserve"
   viewBox="0 0 308.63143 339.7"
   y="0px"
   x="0px"
   id="Camada_1"
   version="1.1"><metadata
   id="metadata35"><rdf:RDF><cc:Work
       rdf:about=""><dc:format>image/svg+xml</dc:format><dc:type
         rdf:resource="http://purl.org/dc/dcmitype/StillImage" /><dc:title></dc:title></cc:Work></rdf:RDF></metadata><defs
   id="defs33">


</defs>
<style
   id="style2"
   type="text/css">
	.st0{fill:#060E12;}
	.st1{fill-rule:evenodd;clip-rule:evenodd;fill:#ffffff;}
</style>
<path
   class="st1"
   d="m 161.81281,154.5 c -7.3,-4.2 -17.9,-0.4 -20.8,7.8 -3.1,9.1 5.1,20.3 15.4,19 7.9,-1 14,-9.5 12.3,-17.4 -0.7,-3.9 -3.2,-7.3 -6.9,-9.4 z m -36.8,38.5 c -0.4,-0.4 -0.7,-0.8 -1.1,-1.4 -7.9,-9.9 -10.6,-23.9 -6.9,-36.1 5.2,-17 22.7,-29.3 41,-27.9 5.8,0.5 11.5,2.3 16.7,5.3 12.6,7.4 20.5,22.2 19.4,36.8 -1.3,16.9 -14.5,32.2 -31.1,35.8 -13.4,2.8 -28.1,-1.9 -37.4,-11.9 l 0.1,-0.2 z m 95.4,-164.2 v 0 l 16.7,-28.8 21.7,12.5 -16.7,28.9 c 35.4,24.6 60,64.5 65.4,107.9 6.9,55.3 -18.5,113.8 -65.7,146.2 -37.1,25.5 -85.8,33.5 -129.3,21.3 l 13,-22.6 c 27.1,6.1 56.3,3.5 82,-8 43.1,-19.4 73.9,-63.8 76,-112 1.9,-42.8 -18.8,-85.6 -54.1,-111 l -26.6,46 c -3,-2.6 -6.4,-4.9 -9.8,-6.9 -0.2,-0.1 -0.4,-0.2 -0.6,-0.4 -16.6,-9.5 -36.8,-12.4 -55.4,-8.1 -31.2,7.3 -56.299996,35.5 -58.999996,68.3 -1.3,15.8 2.8,31.7 11,45.3 l -14,24.2 c -21.7,-27.8 -28.6,-67 -15,-101 14.1,-35.1 48.799996,-61 87.499996,-63.7 15.8,-1 31.7,1.7 46.3,7.8 l 13.9,-24.1 v 0 z m -23.8,-8.9 -13.1,22.6 c -39,-8.7 -82.2,0.6 -113.599996,27.8 -31.4,27 -48.4,69.7 -44.1,111.1 3.8,36.4 23.9,70.7 53.7,92.1 l 26.599996,-46.1 c 6.7,5.5 14.3,10 22.6,12.9 22.5,7.9 48.7,4.6 68.7,-9 19.3,-13.1 32,-35.7 33.3,-59.1 0.8,-15 -3.1,-30.1 -10.7,-43 l 13.8,-23.9 c 15,19.3 23.4,43.9 21.9,68.9 -2.2,36.6 -25.7,71.2 -59.7,86.5 -25.3,11.4 -55.1,11.5 -80.9,0.9 l -14,24.3 v 0 l -12.499996,21.7 v 0 l -18.6,32.1 -21.7,-12.5 18.5,-32 c -29,-20.1 -51.1,-50.2 -60.9000003,-84.4 -11.4,-39.5 -6.19999998,-83.7 14.6000003,-119.8 25.1,-43.5 72.2,-73.1 122.899996,-76.8 18,-1.2 36.1,0.8 53.2,5.7 z"
   id="path26"
   style="clip-rule:evenodd;fill:#ffffff;fill-rule:evenodd" />
</svg>
